<?xml version="1.0" encoding="UTF-8"?>
<svg xmlns="http://www.w3.org/2000/svg" xmlns:xlink="http://www.w3.org/1999/xlink" viewBox="0 0 96 96" width="96px" height="96px">
<g id="surface23276917">
<path style=" stroke:none;fill-rule:nonzero;fill:rgb(58.431375%,64.705884%,65.098041%);fill-opacity:1;" d="M 16 74 L 46.46875 16.871094 C 47.109375 15.667969 48.847656 15.691406 49.457031 16.910156 L 60 38 Z M 16 74 "/>
<path style=" stroke:none;fill-rule:nonzero;fill:rgb(40.000001%,40.000001%,40.000001%);fill-opacity:1;" d="M 16 73.984375 L 27.09375 5.585938 C 27.382812 3.796875 29.785156 3.40625 30.625 5.015625 L 52 45.984375 Z M 16 73.984375 "/>
<path style=" stroke:none;fill-rule:nonzero;fill:rgb(80.000001%,80.000001%,80.000001%);fill-opacity:1;" d="M 16.015625 73.972656 L 16.414062 73.65625 L 51.472656 44.976562 L 41.585938 26.023438 Z M 16.015625 73.972656 "/>
<path style=" stroke:none;fill-rule:nonzero;fill:rgb(100%,100%,100%);fill-opacity:1;" d="M 16 74 L 69.332031 22.574219 C 70.449219 21.496094 72.316406 22.132812 72.542969 23.667969 L 80 74 L 50 91.484375 C 48.78125 92.171875 47.296875 92.171875 46.078125 91.484375 Z M 16 74 "/>
</g>
</svg>
