<?xml version="1.0" encoding="UTF-8"?>
<svg xmlns="http://www.w3.org/2000/svg" xmlns:xlink="http://www.w3.org/1999/xlink" viewBox="0 0 90 90" width="90px" height="90px">
<g id="surface23219627">
<path style=" stroke:none;fill-rule:nonzero;fill:rgb(100%,100%,100%);fill-opacity:1;" d="M 72 12 L 18 12 C 14.683594 12 12 14.683594 12 18 L 12 72 C 12 75.316406 14.683594 78 18 78 L 72 78 C 75.316406 78 78 75.316406 78 72 L 78 18 C 78 14.683594 75.316406 12 72 12 Z M 45 61.140625 C 45 66.472656 41.730469 69.460938 36.300781 69.460938 C 30.9375 69.460938 27.519531 66.324219 27.519531 61.253906 L 33.328125 61.253906 C 33.34375 63.136719 34.46875 64.324219 36.199219 64.324219 C 37.984375 64.324219 38.941406 63.199219 38.941406 61.089844 L 38.941406 44.992188 L 45 44.992188 Z M 61.441406 69.460938 C 55.414062 69.460938 51.625 66.621094 51.523438 62.03125 L 57.300781 62.03125 C 57.445312 63.765625 59.179688 64.867188 61.6875 64.867188 C 63.949219 64.867188 65.503906 63.78125 65.503906 62.210938 C 65.503906 60.890625 64.464844 60.179688 61.738281 59.636719 L 58.605469 59.011719 C 54.246094 58.183594 52.003906 55.808594 52.003906 52.0625 C 52.003906 47.40625 55.734375 44.351562 61.476562 44.351562 C 67.054688 44.351562 70.917969 47.371094 71.015625 51.78125 L 65.421875 51.78125 C 65.289062 50.097656 63.6875 48.925781 61.554688 48.925781 C 59.425781 48.925781 58.027344 49.933594 58.027344 51.515625 C 58.027344 52.820312 59.082031 53.578125 61.589844 54.074219 L 64.65625 54.667969 C 69.363281 55.578125 71.476562 57.703125 71.476562 61.484375 C 71.476562 66.457031 67.683594 69.460938 61.441406 69.460938 Z M 61.441406 69.460938 "/>
</g>
</svg>
