<?xml version="1.0" encoding="UTF-8"?>
<svg xmlns="http://www.w3.org/2000/svg" xmlns:xlink="http://www.w3.org/1999/xlink" viewBox="0 0 96 96" width="96px" height="96px">
<g id="surface23223729">
<path style=" stroke:none;fill-rule:nonzero;fill:rgb(100%,100%,100%);fill-opacity:1;" d="M 48.015625 90.839844 C 46.867188 90.839844 45.726562 90.539062 44.722656 89.957031 L 34.242188 83.753906 C 32.675781 82.875 33.441406 82.566406 33.957031 82.386719 C 36.042969 81.65625 36.464844 81.492188 38.695312 80.226562 C 38.929688 80.09375 39.234375 80.140625 39.472656 80.28125 L 47.527344 85.058594 C 47.816406 85.21875 48.230469 85.21875 48.496094 85.058594 L 79.890625 66.9375 C 80.183594 66.773438 80.371094 66.4375 80.371094 66.089844 L 80.371094 29.863281 C 80.371094 29.503906 80.183594 29.179688 79.886719 29 L 48.507812 10.890625 C 48.214844 10.71875 47.828125 10.71875 47.539062 10.890625 L 16.164062 28.996094 C 15.859375 29.171875 15.664062 29.507812 15.664062 29.855469 L 15.664062 66.082031 C 15.664062 66.429688 15.855469 66.757812 16.152344 66.921875 L 24.753906 71.886719 C 29.421875 74.222656 32.273438 71.472656 32.273438 68.707031 L 32.273438 32.953125 C 32.273438 32.441406 32.671875 32.046875 33.183594 32.046875 L 37.160156 32.046875 C 37.65625 32.046875 38.0625 32.441406 38.0625 32.953125 L 38.0625 68.722656 C 38.0625 74.949219 34.671875 78.523438 28.769531 78.523438 C 26.953125 78.523438 25.523438 78.523438 21.53125 76.558594 L 13.292969 71.8125 C 11.257812 70.632812 10 68.433594 10 66.085938 L 10 29.855469 C 10 27.496094 11.257812 25.296875 13.292969 24.132812 L 44.71875 6.003906 C 46.707031 4.878906 49.347656 4.878906 51.320312 6.003906 L 82.710938 24.140625 C 84.734375 25.3125 86 27.507812 86 29.863281 L 86 66.09375 C 86 68.441406 84.734375 70.632812 82.707031 71.8125 L 51.320312 89.941406 C 50.3125 90.523438 49.175781 90.820312 48.011719 90.820312 "/>
<path style=" stroke:none;fill-rule:nonzero;fill:rgb(100%,100%,100%);fill-opacity:1;" d="M 57.710938 65.875 C 43.976562 65.875 41.097656 59.566406 41.097656 54.28125 C 41.097656 53.777344 41.503906 53.375 42.007812 53.375 L 46.0625 53.375 C 46.511719 53.375 46.886719 53.703125 46.957031 54.144531 C 47.570312 58.277344 49.394531 60.359375 57.699219 60.359375 C 64.316406 60.359375 67.128906 58.867188 67.128906 55.355469 C 67.128906 53.335938 66.328125 51.835938 56.050781 50.828125 C 47.453125 49.980469 42.140625 48.089844 42.140625 41.210938 C 42.140625 34.878906 47.484375 31.105469 56.433594 31.105469 C 66.484375 31.105469 71.46875 34.597656 72.097656 42.09375 C 72.121094 42.351562 72.027344 42.601562 71.851562 42.792969 C 71.679688 42.972656 71.4375 43.082031 71.183594 43.082031 L 67.105469 43.082031 C 66.683594 43.082031 66.3125 42.785156 66.226562 42.375 C 65.242188 38.027344 62.871094 36.636719 56.417969 36.636719 C 49.195312 36.636719 48.355469 39.152344 48.355469 41.039062 C 48.355469 43.324219 49.347656 43.992188 59.089844 45.28125 C 68.738281 46.5625 73.320312 48.371094 73.320312 55.152344 C 73.320312 61.988281 67.617188 65.910156 57.667969 65.910156 "/>
</g>
</svg>
