<?xml version="1.0" encoding="UTF-8"?>
<svg xmlns="http://www.w3.org/2000/svg" xmlns:xlink="http://www.w3.org/1999/xlink" viewBox="0 0 90 90" width="90px" height="90px">
<g id="surface23216211">
<path style=" stroke:none;fill-rule:nonzero;fill:rgb(100%,100%,100%);fill-opacity:1;" d="M 39 9 C 32.371094 9 27 14.371094 27 21 L 27 24 L 42 24 C 43.65625 24 45 25.34375 45 27 C 45 28.65625 43.65625 30 42 30 L 21 30 C 14.371094 30 9 35.371094 9 42 L 9 54 C 9 60.628906 14.371094 66 21 66 L 24 66 L 24 51 C 24 46.039062 28.039062 42 33 42 L 57 42 C 58.65625 42 60 40.65625 60 39 L 60 21 C 60 14.371094 54.628906 9 48 9 Z M 36 15 C 37.65625 15 39 16.34375 39 18 C 39 19.65625 37.65625 21 36 21 C 34.34375 21 33 19.65625 33 18 C 33 16.34375 34.34375 15 36 15 Z M 66 24 L 66 39 C 66 43.960938 61.960938 48 57 48 L 33 48 C 31.34375 48 30 49.34375 30 51 L 30 69 C 30 75.628906 35.371094 81 42 81 L 51 81 C 57.628906 81 63 75.628906 63 69 L 63 66 L 48 66 C 46.34375 66 45 64.65625 45 63 C 45 61.34375 46.34375 60 48 60 L 69 60 C 75.628906 60 81 54.628906 81 48 L 81 36 C 81 29.371094 75.628906 24 69 24 Z M 54 69 C 55.65625 69 57 70.34375 57 72 C 57 73.65625 55.65625 75 54 75 C 52.34375 75 51 73.65625 51 72 C 51 70.34375 52.34375 69 54 69 Z M 54 69 "/>
</g>
</svg>
