<?xml version="1.0" encoding="UTF-8"?>
<svg xmlns="http://www.w3.org/2000/svg" xmlns:xlink="http://www.w3.org/1999/xlink" viewBox="0 0 90 90" width="90px" height="90px">
<g id="surface23221264">
<path style=" stroke:none;fill-rule:nonzero;fill:rgb(100%,100%,100%);fill-opacity:1;" d="M 32.039062 12.546875 C 30.207031 12.546875 28.507812 12.957031 27 13.824219 C 22.292969 16.539062 20.5 23.160156 21.449219 31.40625 C 13.839844 34.707031 9 39.566406 9 45 C 9 50.433594 13.839844 55.292969 21.449219 58.59375 C 20.503906 66.839844 22.292969 73.460938 27 76.179688 C 28.503906 77.042969 30.203125 77.457031 32.039062 77.457031 C 35.945312 77.457031 40.464844 75.492188 45 72.128906 C 49.535156 75.492188 54.058594 77.457031 57.96875 77.457031 C 59.800781 77.457031 61.5 77.042969 63.007812 76.179688 C 67.710938 73.460938 69.503906 66.839844 68.554688 58.59375 C 76.164062 55.292969 81 50.433594 81 45 C 81 39.566406 76.160156 34.707031 68.546875 31.40625 C 69.496094 23.160156 67.707031 16.539062 63 13.824219 C 61.496094 12.953125 59.796875 12.546875 57.960938 12.546875 C 54.054688 12.546875 49.535156 14.507812 45 17.871094 C 40.464844 14.507812 35.945312 12.546875 32.039062 12.546875 Z M 32.039062 17.792969 C 34.382812 17.792969 37.484375 19.042969 40.851562 21.351562 C 38.871094 23.21875 36.933594 25.34375 35.066406 27.710938 C 32.042969 28.144531 29.191406 28.773438 26.546875 29.566406 C 26.535156 29.382812 26.5 29.191406 26.488281 29.011719 C 26.167969 23.667969 27.34375 19.6875 29.625 18.371094 C 30.300781 17.980469 31.089844 17.792969 32.039062 17.792969 Z M 57.960938 17.792969 C 58.910156 17.792969 59.699219 17.980469 60.375 18.371094 C 62.65625 19.6875 63.832031 23.667969 63.511719 29.011719 C 63.5 29.191406 63.464844 29.382812 63.453125 29.566406 C 60.808594 28.773438 57.953125 28.144531 54.925781 27.710938 C 53.0625 25.34375 51.128906 23.21875 49.148438 21.351562 C 52.515625 19.042969 55.617188 17.792969 57.960938 17.792969 Z M 45 24.683594 C 45.8125 25.425781 46.621094 26.207031 47.4375 27.0625 C 46.628906 27.039062 45.824219 27 45 27 C 44.179688 27 43.375 27.039062 42.566406 27.0625 C 43.382812 26.210938 44.1875 25.425781 45 24.683594 Z M 45 32.25 C 47.484375 32.25 49.84375 32.390625 52.078125 32.628906 C 53.441406 34.484375 54.785156 36.445312 56.042969 38.625 C 57.253906 40.714844 58.320312 42.855469 59.261719 45 C 58.320312 47.144531 57.253906 49.289062 56.042969 51.378906 C 54.789062 53.554688 53.449219 55.503906 52.089844 57.351562 C 49.773438 57.605469 47.402344 57.75 45 57.75 C 42.515625 57.75 40.15625 57.609375 37.921875 57.367188 C 36.558594 55.515625 35.214844 53.5625 33.953125 51.378906 C 32.746094 49.289062 31.679688 47.144531 30.738281 45 C 31.679688 42.855469 32.746094 40.714844 33.953125 38.625 C 35.210938 36.449219 36.550781 34.496094 37.910156 32.648438 C 40.226562 32.394531 42.597656 32.25 45 32.25 Z M 59.238281 33.875 C 60.429688 34.160156 61.574219 34.46875 62.648438 34.816406 C 62.40625 35.917969 62.105469 37.039062 61.769531 38.171875 C 61.382812 37.449219 61.007812 36.722656 60.59375 36 C 60.164062 35.257812 59.6875 34.589844 59.238281 33.875 Z M 30.753906 33.878906 C 30.308594 34.59375 29.835938 35.257812 29.40625 36 C 28.992188 36.722656 28.617188 37.449219 28.230469 38.171875 C 27.890625 37.039062 27.589844 35.914062 27.347656 34.808594 C 28.441406 34.464844 29.582031 34.15625 30.757812 33.878906 Z M 22.40625 36.738281 C 23.039062 39.40625 23.914062 42.171875 25.042969 44.992188 C 23.917969 47.808594 23.042969 50.570312 22.410156 53.230469 C 17.1875 50.710938 14.25 47.570312 14.25 45 C 14.25 42.363281 17.105469 39.359375 21.890625 36.964844 C 22.054688 36.886719 22.238281 36.816406 22.40625 36.738281 Z M 67.589844 36.765625 C 72.8125 39.289062 75.75 42.429688 75.75 45 C 75.75 47.636719 72.894531 50.640625 68.109375 53.03125 C 67.945312 53.113281 67.761719 53.183594 67.59375 53.261719 C 66.960938 50.589844 66.089844 47.820312 64.964844 45 C 66.085938 42.1875 66.957031 39.429688 67.589844 36.765625 Z M 45 39 C 41.683594 39 39 41.683594 39 45 C 39 48.316406 41.683594 51 45 51 C 48.316406 51 51 48.316406 51 45 C 51 41.683594 48.316406 39 45 39 Z M 28.230469 51.828125 C 28.617188 52.550781 28.996094 53.277344 29.414062 54 C 29.84375 54.742188 30.316406 55.410156 30.761719 56.125 C 29.570312 55.839844 28.425781 55.53125 27.351562 55.183594 C 27.59375 54.082031 27.894531 52.960938 28.230469 51.828125 Z M 61.769531 51.832031 C 62.105469 52.96875 62.410156 54.085938 62.65625 55.1875 C 61.558594 55.535156 60.417969 55.84375 59.246094 56.121094 C 59.691406 55.40625 60.164062 54.742188 60.59375 54 C 61.007812 53.277344 61.382812 52.554688 61.769531 51.832031 Z M 26.546875 60.433594 C 29.191406 61.226562 32.046875 61.855469 35.074219 62.289062 C 36.941406 64.65625 38.871094 66.785156 40.851562 68.65625 C 37.484375 70.964844 34.382812 72.210938 32.039062 72.210938 C 31.089844 72.210938 30.300781 72.019531 29.625 71.628906 C 27.34375 70.3125 26.167969 66.335938 26.488281 60.996094 C 26.5 60.8125 26.535156 60.617188 26.546875 60.433594 Z M 63.453125 60.433594 C 63.464844 60.617188 63.5 60.8125 63.511719 60.996094 C 63.832031 66.335938 62.65625 70.3125 60.375 71.628906 C 59.699219 72.019531 58.910156 72.210938 57.960938 72.210938 C 55.617188 72.210938 52.515625 70.964844 49.148438 68.65625 C 51.128906 66.785156 53.066406 64.65625 54.933594 62.289062 C 57.957031 61.855469 60.808594 61.226562 63.453125 60.433594 Z M 42.5625 62.9375 C 43.371094 62.960938 44.175781 63 45 63 C 45.824219 63 46.628906 62.960938 47.4375 62.9375 C 46.621094 63.792969 45.8125 64.574219 45 65.316406 C 44.1875 64.574219 43.378906 63.792969 42.5625 62.9375 Z M 42.5625 62.9375 "/>
</g>
</svg>
